# xmcd
# 
# Track frame offsets:
#     182
#     39700
#     54925
#     86900
#     128175
#     235725
# 
# Disc length: 3762
# 
# Revision: 0
# Processed by: cddbd v1.5.2PL0 Copyright (c) Steve Scherf et al.
# Submitted via: fre:ac v1.0.17
# 
DISCID=490eb006
DTITLE=Prince - Get Wild
DYEAR=0
DGENRE=
TTITLE0=Billy Jack Bitch
TTITLE1=Papa
TTITLE2=Love Sign
TTITLE3=Shhh
TTITLE4=Oh, Mary Don't You Weep
TTITLE5=Get Wild
EXTD=
EXTT0=
EXTT1=
EXTT2=
EXTT3=
EXTT4=
EXTT5=
PLAYORDER=
